<?xml version="1.0" encoding="UTF-8"?>
<svg id="Calque_1" xmlns="http://www.w3.org/2000/svg" version="1.1" viewBox="0 0 25 25">
  <!-- Generator: Adobe Illustrator 29.8.4, SVG Export Plug-In . SVG Version: 2.1.1 Build 6)  -->
  <path d="M6.4,21.4h.6v1.2c0,.1,0,.3.2.3.1,0,.3,0,.4,0l1.5-.9,1.5.9c0,0,.1,0,.2,0s.1,0,.2,0c.1,0,.2-.2.2-.3v-1.2h7.4c1.3,0,2.4-1.1,2.4-2.4V5.5c0-1.3-1.1-2.4-2.4-2.4H6.4c-1.3,0-2.4,1.1-2.4,2.4v13.5c0,1.3,1.1,2.4,2.4,2.4ZM10.3,21.9l-1.1-.7c-.1,0-.3,0-.4,0l-1.1.7v-2.3h2.6v2.3h0ZM18.5,20.4h-7.4v-.8h7.5c.5,0,.9-.1,1.2-.4-.1.7-.7,1.2-1.4,1.2ZM7.4,4.1h11.1c.8,0,1.4.6,1.4,1.4v9.8c0,.7-.6,1.3-1.3,1.3H7.4V4.1ZM5,5.5c0-.8.6-1.4,1.4-1.4v12.5h-.1c-.5,0-.9.1-1.3.4V5.5ZM5,18.8c0-.7.6-1.3,1.3-1.3h12.4c.5,0,.9-.1,1.3-.4v.2c0,.7-.6,1.3-1.3,1.3H6.2c-.3,0-.5.2-.5.5s.2.5.5.5h.8v.8h-.6c-.8,0-1.4-.6-1.4-1.4,0,0,0-.2,0-.2Z"/>
</svg>