<?xml version="1.0" encoding="UTF-8"?>
<svg id="Calque_1" xmlns="http://www.w3.org/2000/svg" version="1.1" viewBox="0 0 25 25">
  <!-- Generator: Adobe Illustrator 29.8.4, SVG Export Plug-In . SVG Version: 2.1.1 Build 6)  -->
  <path d="M21.7,18.1v-4.6h0v-2.4h0c0-1.4-2.5-2.2-4.8-2.2s-2.9.3-3.8.8v-.6h0v-2.4h0c0-1.4-2.5-2.2-4.8-2.2s-4.8.7-4.8,2.2v11.4c.5.9,2.4,1.7,4.7,1.7s3.5-.4,4.2-1.1c.8.7,2.4,1.1,4.2,1.1s4.3-.7,4.8-1.8h.2ZM20.8,13.5h0c-.3.6-1.9,1.2-3.8,1.2s-3.4-.5-3.8-1h0v-1c.9.5,2.4.8,3.8.8s2.9-.3,3.8-.8v.9h0ZM4.6,13.4v-.8c.8.5,2.3.8,3.8.8s3-.3,3.8-.8v.8h0c-.3.7-1.9,1.2-3.8,1.2s-3.4-.5-3.8-1c0,0,0-.2,0-.2ZM12.3,11.3h0c-.3.6-1.9,1.2-3.8,1.2s-3.4-.5-3.8-1v-1c.8.5,2.3.8,3.8.8s3-.3,3.8-.8v.8h0ZM12.3,9h0c-.3.6-1.9,1.2-3.8,1.2s-3.4-.5-3.8-1v-1c.9.5,2.4.8,3.8.8s2.9-.3,3.8-.8v.9h0ZM4.6,15.6v-.8c.8.5,2.3.8,3.8.8s3-.3,3.8-.8v.8h0c-.3.7-1.9,1.2-3.8,1.2s-3.4-.5-3.8-1c0,0,0-.2,0-.2ZM13.1,15.7h0v-.9c.8.5,2.3.8,3.8.8s3-.3,3.8-.8v.9h0c-.3.6-1.9,1.2-3.8,1.2s-3.4-.5-3.8-1h0v-.2ZM17,10c2.4,0,3.8.7,3.8,1.2s-1.4,1.2-3.8,1.2-3.8-.7-3.8-1.2,1.6-1.2,3.8-1.2ZM8.5,5.5c2.4,0,3.8.7,3.8,1.2s-1.4,1.2-3.8,1.2-3.8-.7-3.8-1.2,1.4-1.2,3.8-1.2ZM8.5,19.1c-2,0-3.4-.5-3.8-1v-1c.8.5,2.3.8,3.8.8s3-.3,3.8-.8v1c-.3.5-1.9,1.1-3.8,1.1h0ZM13.1,17.9v-1c.8.5,2.3.8,3.8.8s3-.3,3.8-.8v1c-.3.5-1.9,1.1-3.8,1.1s-3.4-.5-3.8-1h0Z"/>
</svg>