<?xml version="1.0" encoding="UTF-8"?>
<svg id="Calque_1" xmlns="http://www.w3.org/2000/svg" version="1.1" viewBox="0 0 25 25">
  <!-- Generator: Adobe Illustrator 29.8.4, SVG Export Plug-In . SVG Version: 2.1.1 Build 6)  -->
  <path d="M18.9,3.9H5.9c-1.2,0-2.2,1-2.2,2.2v13.1c0,1.2,1,2.2,2.2,2.2h0s13.1,0,13.1,0c1.2,0,2.2-1,2.2-2.2h0V6c0-1.2-1-2.2-2.2-2.2ZM19.9,19.1c0,.6-.4,1-1,1,0,0,0,0,0,0H5.9c-.5,0-1-.4-1-1V6c0-.5.4-1,1-1h13.1c.5,0,1,.4,1,1v13.1ZM17.6,11.9h-1.4c-.2,0-.4.1-.5.3l-1.5,2.8-3.1-6.4c0-.2-.3-.3-.5-.3h0c-.2,0-.4.1-.5.3l-1.6,3.2h-1.2c-.3,0-.6.3-.6.6s.3.6.6.6h1.5c.2,0,.4-.1.5-.3l1.2-2.5,3.1,6.3c0,.2.3.3.5.3h0c.2,0,.4-.1.5-.3l1.9-3.5h1c.3,0,.6-.3.6-.6s-.3-.6-.6-.6h0Z"/>
</svg>