<?xml version="1.0" encoding="UTF-8"?>
<svg id="Calque_1" xmlns="http://www.w3.org/2000/svg" version="1.1" viewBox="0 0 25 25">
  <!-- Generator: Adobe Illustrator 29.8.4, SVG Export Plug-In . SVG Version: 2.1.1 Build 6)  -->
  <path d="M12.8,3.1c-2.2,0-4.3.8-5.9,2.1-.3-.2-.6-.3-1-.3-1,0-1.7.8-1.7,1.7s.2.9.5,1.2c-.8,1.4-1.3,3-1.3,4.7,0,5.2,4.2,9.4,9.4,9.4s3.8-.6,5.4-1.7c.3.2.7.4,1.1.4,1,0,1.7-.8,1.7-1.7s-.2-.8-.4-1.1c1.1-1.6,1.6-3.4,1.6-5.3,0-5.2-4.2-9.4-9.4-9.4ZM5.9,5.7c.5,0,1,.4,1,1s-.4,1-1,1-1-.4-1-1,.4-1,1-1ZM19.2,19.9c-.5,0-1-.4-1-1s.4-1,1-1,1,.4,1,1-.4,1-1,1ZM20,17.3c-.2-.1-.5-.2-.7-.2-1,0-1.7.8-1.7,1.7s0,.5.2.8c-1.4,1-3.1,1.5-4.9,1.5-4.8,0-8.7-3.9-8.7-8.7s.4-3,1.1-4.2c.2,0,.4.1.7.1,1,0,1.7-.8,1.7-1.7s0-.6-.3-.9c1.5-1.2,3.4-1.9,5.4-1.9,4.8,0,8.7,3.9,8.7,8.7s-.5,3.4-1.5,4.8Z"/>
  <path d="M12.8,9.9c-1.5,0-2.6,1.2-2.6,2.6s1.2,2.6,2.6,2.6,2.6-1.2,2.6-2.6-1.2-2.6-2.6-2.6ZM12.8,14.4c-1,0-1.9-.8-1.9-1.9s.8-1.9,1.9-1.9,1.9.8,1.9,1.9-.8,1.9-1.9,1.9Z"/>
  <path d="M17.5,8.8c-1.1-1.4-2.9-2.3-4.7-2.3-3.3,0-6,2.7-6,6s.2,1.8.6,2.6c-.3.3-.5.8-.5,1.2,0,1,.8,1.7,1.7,1.7s.8-.2,1.1-.4c.9.6,2,.8,3.1.8,3.3,0,6-2.7,6-6s0-.4,0-.6c.6-.3.9-.9.9-1.5,0-1-.8-1.7-1.7-1.7s-.3,0-.5,0ZM8.6,17.4c-.5,0-1-.4-1-1s.4-1,1-1,1,.4,1,1-.4,1-1,1ZM18,12.5c0,2.9-2.4,5.3-5.3,5.3s-1.8-.2-2.6-.7c0-.2.2-.5.2-.7,0-1-.8-1.7-1.7-1.7s-.4,0-.6.1c-.3-.7-.5-1.5-.5-2.2,0-2.9,2.4-5.3,5.3-5.3s3,.7,4,1.9c-.4.3-.6.8-.6,1.3,0,1,.8,1.7,1.7,1.7s0,0,0,0c0,.1,0,.2,0,.4ZM19,10.4c0,.5-.4,1-1,1s-1-.4-1-1,.4-1,1-1,1,.4,1,1Z"/>
</svg>