<?xml version="1.0" encoding="UTF-8"?>
<svg id="Calque_1" xmlns="http://www.w3.org/2000/svg" version="1.1" viewBox="0 0 25 25">
  <!-- Generator: Adobe Illustrator 29.8.4, SVG Export Plug-In . SVG Version: 2.1.1 Build 6)  -->
  <defs>
    <style>
      .st0 {
        fill-rule: evenodd;
      }
    </style>
  </defs>
  <path class="st0" d="M7.3,12.4c-1.7,0-3.1,1.4-3.1,3.1s1.4,3.1,3.1,3.1,3.1-1.4,3.1-3.1-1.4-3.1-3.1-3.1ZM7.3,17.4c-1.1,0-2-1-2-2s.9-2,2-2,2,1,2,2-1,2-2,2Z"/>
  <path class="st0" d="M17.9,12.4c-1.7,0-3.1,1.4-3.1,3.1s1.4,3.1,3.1,3.1,3.1-1.4,3.1-3.1-1.4-3.1-3.1-3.1ZM17.9,17.4c-1.1,0-2-1-2-2s.9-2,2-2,2,1,2,2-1,2-2,2Z"/>
  <path class="st0" d="M22,12.8l-2.1-6c-.5-1.4-1.8-2.3-3.3-2.3s-3.2,1.4-3.4,3.1h-1.1c-.1-1.7-1.9-3.1-3.4-3.1s-2.8,1-3.3,2.3l-2.1,6c-.4.6-.7,1.4-.7,2.1v.4c0,2.7,2.2,4.8,4.8,4.8s4.6-2,4.8-4.5h0v-3.6h1.1v3.5h0c.2,2.7,2.1,4.6,4.8,4.6s4.8-2.1,4.8-4.8v-.4c-.1-.7-.3-1.5-.7-2.1ZM16.5,5.6h.1c1.1.1,2,.7,2.3,1.7l1.4,4.1c-.7-.4-.9-.6-2.5-.6s-3,.6-3.8,1.8v-1.3c.2-.4.5-.6,1-.6h.3c.3,0,.5-.2.5-.5v-1.2c0-.2-.1-.4-.3-.4-.5-.3-1.1-.5-1.5-.6.1-1.3,1.2-2.2,2.5-2.2ZM6.2,7.2c.3-1,1.3-1.6,2.3-1.6s2.5,1.1,2.5,2.3c-.4.1-.9.3-1.3.5-.1.1-.2.2-.2.4v1.2c0,.3.2.5.5.5h.1c.3,0,.6.2.9.5v1.3c-1-1.1-2.3-1.8-3.8-1.8s-1.7.2-2.5.6l1.5-4.1ZM7.3,19.3c-2.1,0-3.8-1.7-3.8-3.8s1.7-3.8,3.8-3.8,3.8,1.7,3.8,3.8-1.7,3.8-3.8,3.8ZM13,11.1h-1c-.2-.7-.9-1.4-1.6-1.5v-.4c.9-.4,1.6-.6,2.2-.6,0,0,0,0,0,0h.1s0,0,0,0c.6,0,1.4.2,2.2.6v.3c-.9.1-1.6.7-1.8,1.6ZM17.9,19.3c-2.1,0-3.8-1.7-3.8-3.8s1.7-3.8,3.8-3.8,3.8,1.7,3.8,3.8-1.7,3.8-3.8,3.8Z"/>
</svg>