<?xml version="1.0" encoding="UTF-8"?>
<svg id="Calque_1" xmlns="http://www.w3.org/2000/svg" version="1.1" viewBox="0 0 25 25">
  <!-- Generator: Adobe Illustrator 29.8.4, SVG Export Plug-In . SVG Version: 2.1.1 Build 6)  -->
  <defs>
    <style>
      .st0 {
        fill: #f7f0e8;
      }
    </style>
  </defs>
  <path class="st0" d="M6.2,9.9h1.5c.3,1.1,1.2,1.8,2.4,1.8s2.1-.7,2.4-1.8h6c.4,0,.7-.3.7-.7s-.3-.7-.7-.7h-6c-.3-1.1-1.2-1.8-2.4-1.8s-2.1.7-2.4,1.8h-1.5c-.4,0-.7.3-.7.7s.3.7.7.7ZM10.1,8.1c.7,0,1.2.5,1.2,1.2s-.5,1.2-1.2,1.2-1.2-.5-1.2-1.2.5-1.2,1.2-1.2ZM18.5,14.9h-1.9c-.3-1.3-1.5-2.2-2.9-2.2s-2.6,1-2.9,2.2h-4.7c-.4,0-.7.3-.7.7s.3.7.7.7h4.7c.3,1.3,1.5,2.2,2.9,2.2s2.6-1,2.9-2.2h1.9c.4,0,.7-.3.7-.7s-.3-.7-.7-.7h0ZM13.6,17.2c-.9,0-1.6-.7-1.6-1.6s.7-1.6,1.6-1.6,1.6.7,1.6,1.6-.7,1.6-1.6,1.6Z"/>
</svg>