<?xml version="1.0" encoding="UTF-8"?>
<svg id="Calque_1" xmlns="http://www.w3.org/2000/svg" version="1.1" viewBox="0 0 25 25">
  <!-- Generator: Adobe Illustrator 29.8.4, SVG Export Plug-In . SVG Version: 2.1.1 Build 6)  -->
  <path d="M14.3,10.4c0-.1-.2-.3-.3-.3l-3.7-1.5-1.5-3.7c0-.2-.3-.4-.5-.3,0,0,0,0,0,0h0c-.2,0-.3.2-.4.3l-1.5,3.7-3.7,1.5c-.3.1-.4.4-.3.7,0,.1.2.3.3.3l3.7,1.5,1.5,3.7c0,.1.2.2.3.3,0,0,.1,0,.2,0s.1,0,.2,0c.1,0,.2-.2.3-.3l1.5-3.7,3.7-1.5c.3-.1.4-.4.3-.7ZM12.4,10.6l-2.7,1.1c-.1,0-.2.2-.3.3l-1,2.7-1.1-2.7c0-.1-.2-.3-.3-.3l-2.7-1.1,2.7-1c.1,0,.2-.2.3-.3l1.1-2.7,1,2.7c0,.1.2.2.3.3l2.7,1ZM8.2,4.7h0Z"/>
  <path d="M22.1,16.6c0,0-.1-.1-.2-.2l-2.1-1.2-1.2-2.1c-.1-.2-.3-.3-.5-.2h0c-.1,0-.3.1-.4.2l-1.2,2.1-2.1,1.2c-.2.1-.3.5-.2.7,0,0,.1.1.2.2l2.1,1.2,1.2,2.1c0,.1.2.2.3.2,0,0,0,0,.1,0,0,0,.2,0,.3,0,0,0,.1-.1.2-.2l1.2-2.1,2.1-1.2c.2-.1.3-.5.2-.7ZM20.6,16.9l-1.5.9c0,0-.1.1-.2.2l-.9,1.5-.9-1.5c0,0-.1-.1-.2-.2l-1.5-.9,1.5-.9c0,0,.1-.1.2-.2l.9-1.5.9,1.5c0,0,.1.1.2.2l1.5.9ZM18.1,13s0,0,0,0h0s0,0,0,0Z"/>
</svg>