<?xml version="1.0" encoding="UTF-8"?>
<svg id="Calque_1" xmlns="http://www.w3.org/2000/svg" version="1.1" viewBox="0 0 30 30">
  <!-- Generator: Adobe Illustrator 29.8.4, SVG Export Plug-In . SVG Version: 2.1.1 Build 6)  -->
  <defs>
    <style>
      .st0 {
        fill: gray;
      }
    </style>
  </defs>
  <rect class="st0" x=".6" y=".5" width="29" height="29.3" rx="8" ry="8"/>
  <g>
    <path d="M15.1,23.8c-4.7,0-8.5-3.9-8.5-8.6s.3-.6.6-.6.6.3.6.6c0,4.1,3.3,7.4,7.3,7.4s7.3-3.3,7.3-7.4-3.3-7.4-7.3-7.4-.6-.3-.6-.6.3-.6.6-.6c4.7,0,8.5,3.9,8.5,8.6s-3.8,8.6-8.5,8.6Z"/>
    <ellipse cx="7.7" cy="12.2" rx=".7" ry=".7"/>
    <ellipse cx="9.5" cy="9.5" rx=".7" ry=".7"/>
    <ellipse cx="12.1" cy="7.6" rx=".7" ry=".7"/>
    <path d="M19.3,11.2c-.3-.3-.8-.2-1,.1l-3.3,4.1-3.4-2.8c-.3-.3-.8-.2-1,.1-.3.3-.2.8.1,1l4,3.2c.1.1.3.2.4.2.2,0,.5,0,.6-.3l3.7-4.7c.3-.3.2-.8-.1-1Z"/>
  </g>
</svg>