<?xml version="1.0" encoding="UTF-8"?>
<svg id="Calque_1" xmlns="http://www.w3.org/2000/svg" version="1.1" viewBox="0 0 26 26">
  <!-- Generator: Adobe Illustrator 29.8.4, SVG Export Plug-In . SVG Version: 2.1.1 Build 6)  -->
  <defs>
    <style>
      .st0 {
        fill: #352ee8;
      }

      .st1 {
        fill: #c2c2ff;
      }
    </style>
  </defs>
  <rect class="st1" x=".6" y=".5" width="25" height="25" rx="8" ry="8"/>
  <g>
    <path class="st0" d="M8.5,13.9c1.3.6,3,1,4.7,1s3.5-.4,4.7-1c1.4-.7,2.1-1.6,2.1-2.7s-.7-2-2.1-2.7c-1.3-.6-3-1-4.7-1s-3.5.4-4.7,1c-1.4.7-2.1,1.6-2.1,2.7s.7,2,2.1,2.7ZM13.2,8.3c3.3,0,6.1,1.3,6.1,2.9s-2.8,2.9-6.1,2.9-6.1-1.3-6.1-2.9,2.8-2.9,6.1-2.9Z"/>
    <path class="st0" d="M22.3,11.2s0,0,0,0c0-1.4-1-2.7-2.7-3.6-1.7-.9-3.9-1.4-6.3-1.4s-4.6.5-6.3,1.4c-1.8.9-2.7,2.2-2.7,3.6s0,0,0,0h0v3.6h0c0,1.1.6,2.1,1.6,2.9,0,0,.2.2.3.2.4.3.9.5,1.4.8.2.1.5.2.7.3.7.2,1.3.4,2,.6,1,.2,2,.3,3,.3h0c1,0,2,0,3-.3h.3c.6-.2,1.2-.4,1.7-.6.2,0,.5-.2.7-.3.5-.2.9-.5,1.4-.8.1,0,.2-.2.3-.2,1.1-.8,1.6-1.8,1.6-2.9h0v-3.6ZM7.3,8.2c1.6-.8,3.7-1.3,6-1.3s4.4.5,6,1.3c1.5.8,2.3,1.9,2.3,2.9s-.2,1.1-.6,1.6c-.3.4-.6.7-1,1h0c-.5.4-1.1.7-1.8,1-.6.2-1.3.4-1.9.5,0,0,0,0-.1,0h0c-.9.2-1.8.2-2.7.2-.9,0-1.8,0-2.7-.2h0s-.1,0-.1,0c-.7-.1-1.3-.3-1.9-.5-.7-.3-1.3-.6-1.8-.9h0c-.4-.3-.7-.6-1-1-.4-.5-.6-1-.6-1.6,0-1.1.8-2.1,2.3-2.9ZM15.8,16v2.8c-.4,0-.8.1-1.2.2v-2.8c.4,0,.8,0,1.2-.2ZM8.7,15.5c.4.1.8.2,1.2.3v2.8c-.4,0-.8-.2-1.2-.3v-2.8ZM10.7,16c.4,0,.8.1,1.2.2v2.8c-.4,0-.8,0-1.2-.2v-2.8ZM4.9,14.8h0v-1.6c.3.4.6.7,1,1v2.6c-.5-.5-1-1.2-1-2ZM6.7,17.4v-2.7c.4.2.8.4,1.2.6v2.8s0,0-.1,0c-.4-.2-.7-.4-1.1-.6ZM12.6,19v-2.8c.2,0,.4,0,.6,0h0c.2,0,.4,0,.6,0v2.8c-.2,0-.4,0-.6,0-.2,0-.4,0-.6,0ZM16.6,18.6v-2.8c.4,0,.8-.2,1.2-.3v2.8c-.4.1-.8.2-1.2.3ZM18.7,18s0,0-.1,0v-2.8c.4-.2.8-.4,1.2-.6v2.7c-.3.2-.7.4-1.1.6ZM20.5,16.8v-2.6c.4-.3.7-.6,1-1v1.6h0c0,.9-.5,1.5-1,2Z"/>
  </g>
</svg>