<?xml version="1.0" encoding="UTF-8"?>
<svg id="Calque_1" xmlns="http://www.w3.org/2000/svg" version="1.1" viewBox="0 0 26 26">
  <!-- Generator: Adobe Illustrator 29.8.4, SVG Export Plug-In . SVG Version: 2.1.1 Build 6)  -->
  <defs>
    <style>
      .st0 {
        fill: #352ee8;
      }

      .st1 {
        fill: #c2c2ff;
      }
    </style>
  </defs>
  <rect class="st1" x=".6" y=".5" width="25" height="25" rx="8" ry="8"/>
  <path class="st0" d="M21.1,11c-.2-.7-.9-1.3-1.6-1.4l-3.1-.5-1.4-2.7c-.4-.7-1.1-1.1-1.8-1.1s-1.5.4-1.8,1.1l-1.4,2.7-3.1.5c-.8.1-1.4.7-1.6,1.4-.2.7,0,1.5.5,2.1l2.2,2.2-.5,3c-.1.8.2,1.5.8,2,.6.4,1.5.5,2.1.2l2.8-1.4,2.8,1.4c.3.1.6.2.9.2s.9-.1,1.2-.4c.6-.5.9-1.2.8-2l-.5-3,2.2-2.2c.5-.5.7-1.3.5-2.1ZM19.8,12.3l-2.3,2.4-.2.3.5,3.5c0,.4,0,.7-.4.9-.3.2-.7.3-1,0l-3-1.5c0,0-.2,0-.3,0s-.1,0-.2,0l-3.1,1.5c-.3.2-.7.1-1,0-.3-.2-.4-.6-.4-.9l.5-3.2v-.3s0-.2,0-.2h0s0,0,0,0h0s0,0,0,0h0s0,0,0,0h0s0,0,0,0h0s0,0,0,0l-2.3-2.3c-.3-.3-.3-.6-.2-1,.1-.4.4-.6.8-.7l3.3-.5h.2c0,0,1.7-3.3,1.7-3.3.2-.3.5-.5.9-.5s.7.2.9.5l1.6,3,.2.2,3.6.6c.4,0,.7.3.8.7.1.3,0,.7-.2,1Z"/>
</svg>