<?xml version="1.0" encoding="UTF-8"?>
<svg id="Calque_1" xmlns="http://www.w3.org/2000/svg" version="1.1" viewBox="0 0 35 35">
  <!-- Generator: Adobe Illustrator 29.8.5, SVG Export Plug-In . SVG Version: 2.1.1 Build 2)  -->
  <defs>
    <style>
      .st0 {
        fill: #fff;
      }
    </style>
  </defs>
  <path class="st0" d="M34,17.6v7.2c-.8.6-2,.1-2.9,0-9.4-.3-18.7-1.3-28-1.7-1-.1-.7-3.4-.3-3.5l31.2-2.1Z"/>
  <path class="st0" d="M1.2,17.6v-7.5l31.1,2.1c.5.2.3,2.7.2,3.3h-.2c-.6,0-1.3.3-1.9.3-7.9.5-15.8.9-23.7,1.4s-3.6.5-5.5.4Z"/>
  <path class="st0" d="M34,10l-.3.2c-1.1.2-2.2-.2-3.3-.3-8.3-.6-16.6-1.1-24.9-1.7s-1.8,0-2.8,0c-.5-.1-.2-2.9-.1-3.5h31.1l.3.3v5.1Z"/>
  <polygon class="st0" points="32.6 27.1 32.6 30.5 1.2 30.5 1.2 25.1 32.6 27.1"/>
</svg>