<?xml version="1.0" encoding="UTF-8"?>
<svg id="Calque_1" xmlns="http://www.w3.org/2000/svg" version="1.1" viewBox="0 0 16.3 13.9">
  <!-- Generator: Adobe Illustrator 29.8.5, SVG Export Plug-In . SVG Version: 2.1.1 Build 2)  -->
  <defs>
    <style>
      .st0 {
        fill: #fff;
      }
    </style>
  </defs>
  <path class="st0" d="M15.9,7.1v3.4c-.4.3-.9,0-1.3,0-4.4-.1-8.8-.6-13.2-.8-.5,0-.3-1.6-.2-1.6l14.7-1Z"/>
  <path class="st0" d="M.5,7.1v-3.5l14.6,1c.2,0,.1,1.3,0,1.6h0c-.3,0-.6.1-.9.2-3.7.2-7.4.4-11.1.7s-1.7.3-2.6.2Z"/>
  <path class="st0" d="M15.9,3.5h-.1c-.5.2-1,0-1.5,0-3.9-.3-7.8-.5-11.7-.8s-.9,0-1.3,0c-.3,0-.1-1.4,0-1.6h14.7v2.5Z"/>
  <polygon class="st0" points="15.3 11.6 15.3 13.2 .5 13.2 .5 10.6 15.3 11.6"/>
</svg>